<svg width="37" height="37" viewBox="0 0 37 37" fill="none" xmlns="http://www.w3.org/2000/svg">
<path d="M32.1498 2.0004C32.4574 1.34171 32.766 0.68076 33.2319 0.117493C33.6793 0.211527 33.6142 0.651409 33.547 1.10473C33.5152 1.31971 33.4829 1.53771 33.5047 1.72327C33.6782 1.67685 33.7457 1.52519 33.8133 1.37347C33.8928 1.19516 33.9723 1.01674 34.2238 1.00889C34.5993 1.20908 34.4498 1.6055 34.2982 2.00741C34.2187 2.21825 34.1386 2.43059 34.1334 2.61691C34.326 2.54017 34.4242 2.40253 34.5149 2.27545C34.6343 2.10816 34.7407 1.95919 35.0319 1.99159C35.8287 2.07985 35.5049 2.79816 35.205 3.46336C35.0958 3.7054 34.9899 3.94042 34.9422 4.13549C35.1026 4.12977 35.1991 4.06071 35.2957 3.99164C35.4258 3.89862 35.5559 3.80558 35.8418 3.86717C36.2142 4.28061 35.9121 4.66894 35.6436 5.01407C35.542 5.14459 35.4453 5.26894 35.3917 5.38613C35.4492 5.44835 35.5557 5.46185 35.6622 5.47535C35.768 5.48877 35.8739 5.5022 35.9315 5.56351C35.9411 6.10614 35.7334 6.4318 35.5258 6.75755C35.408 6.94231 35.2902 7.1271 35.212 7.35152C35.2374 7.35698 35.2638 7.36153 35.2903 7.36608C35.4424 7.39226 35.5947 7.41848 35.5717 7.61947C35.4742 7.90112 35.2731 8.08 35.072 8.2588C34.8778 8.43154 34.6837 8.6042 34.5832 8.86936C34.6319 8.93974 34.7047 8.98648 34.7774 9.03325C34.9046 9.11502 35.032 9.19687 35.0315 9.40524C34.7429 9.86229 34.5774 10.3424 34.4166 10.8091C34.2002 11.4369 33.9921 12.0407 33.5039 12.5318C33.4831 12.6627 33.5416 12.7155 33.6002 12.7684C33.6673 12.829 33.7345 12.8897 33.6832 13.0677C33.575 13.3753 33.3434 13.5604 33.1117 13.7457C32.9614 13.8659 32.811 13.9861 32.6943 14.1399C32.6739 14.2709 32.7323 14.3237 32.7907 14.3766C32.8577 14.4372 32.9247 14.4979 32.8737 14.6761C32.4459 14.862 32.2287 15.2575 32.0115 15.6531C31.869 15.9125 31.7266 16.172 31.5246 16.3725C31.7771 16.3896 31.9073 16.5282 31.8844 16.8193C31.6092 17.1486 31.5021 17.5392 31.397 17.9222C31.2597 18.4227 31.1259 18.9102 30.6254 19.2311C30.7485 19.2217 30.7323 19.3497 30.7161 19.4782C30.7066 19.5538 30.6971 19.6295 30.7158 19.6776C30.511 19.7741 30.32 19.8803 30.1756 20.0357C30.2795 20.14 30.2773 20.3506 30.2656 20.5708C29.9596 20.6102 29.887 20.881 29.8144 21.1517C29.742 21.4216 29.6696 21.6915 29.366 21.732C29.3334 21.8685 29.3723 21.9344 29.4111 22.0003C29.45 22.0661 29.4889 22.132 29.4561 22.2686C29.0254 22.2578 28.9508 22.5999 29.0059 23.0725C28.553 23.2185 28.3265 23.5905 28.1 23.9625C27.9086 24.2771 27.7171 24.5917 27.3886 24.7699V25.3054C26.9616 25.3844 26.7829 25.7104 26.6043 26.0364C26.4448 26.3276 26.2853 26.6187 25.9488 26.7338C25.8474 26.8968 25.8058 27.1185 25.7643 27.3403C25.7401 27.4694 25.7159 27.5986 25.6798 27.7162C25.6059 27.7537 25.5234 27.7823 25.4409 27.8109C25.2341 27.8827 25.028 27.9543 24.9607 28.1645C25.4685 29.2222 26.6567 28.9857 27.9076 28.7367C28.3654 28.6455 28.8317 28.5527 29.276 28.5211C30.3775 28.4424 30.5146 29.0491 30.6515 29.6554C30.7209 29.9622 30.7902 30.2688 30.9844 30.4865C31.0225 30.6455 30.985 30.7295 30.9475 30.8135C30.9206 30.8736 30.8938 30.9337 30.8948 31.0213C31.0321 30.9849 31.0723 31.0452 31.1125 31.1056C31.144 31.1529 31.1755 31.2003 31.2538 31.2012C31.2348 31.5556 31.3359 31.8504 31.436 32.1419C31.5195 32.3853 31.6023 32.6264 31.6135 32.898C31.6691 34.2269 31.208 35.0497 29.9952 35.6664C29.7644 35.6613 29.6549 35.7584 29.522 35.8763C29.4342 35.9542 29.3361 36.0412 29.186 36.1136C27.4982 36.1795 25.8415 35.3908 24.3612 34.6861C24.1678 34.594 23.9773 34.5033 23.7902 34.4162C23.6344 34.149 23.5345 33.8632 23.4392 33.5903C23.2733 33.1155 23.1211 32.68 22.7121 32.4511C22.2857 32.213 21.6809 32.1091 21.1029 32.0097C20.7801 31.9543 20.4656 31.9003 20.1952 31.8251C17.5204 31.0883 15.8896 29.8835 14.1707 28.3426C13.467 27.712 12.8138 26.9763 12.1534 26.2323C10.782 24.6876 9.37914 23.1074 7.42594 22.3581C7.1945 22.2692 6.9153 22.171 6.64186 22.0748C6.28371 21.9489 5.93541 21.8264 5.71715 21.7328C4.5013 21.2114 1.40183 20.9293 1.40183 20.9293C1.40183 20.9293 0.417068 21.1756 0.233246 20.4821C0.722256 20.3795 1.19568 20.1222 1.66556 19.8669C2.20572 19.5734 2.74121 19.2825 3.29032 19.2319C3.93438 19.1723 4.37229 19.4669 4.86601 19.799C5.0737 19.9388 5.29127 20.0851 5.5382 20.2146C6.16545 20.5444 6.84859 20.7929 7.51672 21.0176C8.48171 21.3448 9.3483 21.7943 10.1001 22.1843C10.5747 22.4305 11.0036 22.653 11.3826 22.806C12.0294 23.0654 13.1267 23.3684 13.6297 23.2517C14.4126 23.0702 15.2109 21.4118 15.6612 20.4763C15.7072 20.3807 15.7496 20.2927 15.788 20.2146C16.155 19.4675 16.5354 18.202 16.8297 17.2233C17.0624 16.4493 17.2411 15.8546 17.3167 15.8377C17.8873 16.0138 17.7899 16.7825 17.7045 17.4572C17.6599 17.809 17.6186 18.1352 17.6768 18.3386C17.8479 18.1427 17.9671 17.8949 18.0863 17.6471C18.2577 17.2907 18.4292 16.9342 18.7554 16.7313C19.4756 16.896 19.1917 17.5948 18.9526 18.1833C18.8591 18.4136 18.7724 18.6271 18.7554 18.785C19.0816 18.5795 19.2945 18.2618 19.5073 17.9443C19.7255 17.6187 19.9436 17.2932 20.2837 17.0887C20.6628 17.7385 20.2722 18.2687 19.9134 18.7558C19.6786 19.0747 19.4573 19.375 19.4745 19.6783C20.5314 18.3605 21.4033 16.9086 22.2635 15.4759C22.9863 14.2722 23.7009 13.0822 24.5101 11.9967C24.8406 11.5533 25.2165 11.18 25.6063 10.7929C25.9267 10.4748 26.2564 10.1474 26.5779 9.76411C27.0703 9.17715 27.4625 8.51004 27.8544 7.84333C28.1881 7.27574 28.5216 6.70842 28.9166 6.19107C29.265 5.73394 29.6719 5.33203 30.0742 4.93457C30.5346 4.47987 30.989 4.03102 31.3431 3.51203C31.6631 3.04271 31.9061 2.52226 32.1498 2.0004Z" fill="#192b3f"/>
</svg>
