<svg width="10" height="16" viewBox="0 0 10 16" fill="none" xmlns="http://www.w3.org/2000/svg">
<path d="M3.04264 7.99903L9.09101 1.95758C9.19742 1.8511 9.28182 1.72468 9.33941 1.58556C9.39699 1.44643 9.42663 1.29731 9.42663 1.14672C9.42663 0.996133 9.39699 0.847017 9.33941 0.70789C9.28182 0.568763 9.19742 0.44235 9.09101 0.335867C8.98461 0.229384 8.85829 0.144917 8.71926 0.0872884C8.58024 0.0296601 8.43124 0 8.28076 0C8.13028 0 7.98128 0.0296601 7.84225 0.0872884C7.70323 0.144917 7.57691 0.229384 7.47051 0.335867L0.623287 7.18817C0.516324 7.29434 0.431425 7.42065 0.373488 7.55982C0.31555 7.69899 0.285721 7.84826 0.285721 7.99903C0.285721 8.14979 0.31555 8.29906 0.373488 8.43823C0.431425 8.5774 0.516324 8.70371 0.623287 8.80988L7.47051 15.6622C7.57659 15.7692 7.70281 15.8542 7.84188 15.9122C7.98094 15.9701 8.13011 16 8.28076 16C8.43141 16 8.58057 15.9701 8.71964 15.9122C8.8587 15.8542 8.98492 15.7692 9.09101 15.6622C9.19797 15.556 9.28288 15.4297 9.34081 15.2905C9.39875 15.1514 9.42858 15.0021 9.42858 14.8513C9.42858 14.7006 9.39875 14.5513 9.34081 14.4121C9.28288 14.273 9.19797 14.1466 9.09101 14.0405L3.04264 7.99903Z" fill="white"/>
</svg>
