<svg width="95" height="53" viewBox="0 0 95 53" fill="none" xmlns="http://www.w3.org/2000/svg">
<path d="M88.8421 2.77206C89.289 1.80232 89.7375 0.829255 90.4146 0C91.0648 0.13844 90.9701 0.786046 90.8726 1.45343C90.8263 1.76993 90.7794 2.09087 90.811 2.36407C91.0631 2.29572 91.1613 2.07245 91.2596 1.84907C91.375 1.58656 91.4906 1.3239 91.8561 1.31234C92.4018 1.60706 92.1845 2.19068 91.9642 2.78237C91.8486 3.09277 91.7322 3.4054 91.7247 3.6797C92.0045 3.56672 92.1473 3.36408 92.2791 3.177C92.4526 2.93071 92.6072 2.71138 93.0304 2.75909C94.1884 2.88902 93.7178 3.94654 93.2819 4.92586C93.1233 5.28221 92.9693 5.6282 92.9001 5.91538C93.1331 5.90697 93.2735 5.80529 93.4138 5.7036C93.6029 5.56666 93.792 5.42969 94.2074 5.52037C94.7486 6.12904 94.3095 6.70074 93.9193 7.20884C93.7718 7.40101 93.6312 7.58407 93.5532 7.7566C93.6369 7.84821 93.7916 7.86809 93.9464 7.88796C94.1002 7.90772 94.254 7.92748 94.3377 8.01775C94.3516 8.81662 94.0499 9.29606 93.7481 9.77563C93.5769 10.0476 93.4057 10.3197 93.2921 10.6501C93.3291 10.6581 93.3675 10.6648 93.4059 10.6715C93.6269 10.7101 93.8484 10.7487 93.8149 11.0446C93.6732 11.4592 93.3809 11.7226 93.0888 11.9858C92.8065 12.2401 92.5244 12.4943 92.3784 12.8847C92.4492 12.9883 92.5549 13.0571 92.6606 13.126C92.8455 13.2463 93.0305 13.3669 93.0299 13.6736C92.6105 14.3465 92.37 15.0533 92.1362 15.7405C91.8218 16.6647 91.5194 17.5536 90.8099 18.2767C90.7796 18.4693 90.8646 18.5471 90.9498 18.625C91.0473 18.7142 91.145 18.8036 91.0705 19.0656C90.9131 19.5184 90.5766 19.791 90.24 20.0637C90.0215 20.2407 89.8029 20.4177 89.6334 20.644C89.6037 20.8369 89.6885 20.9147 89.7735 20.9926C89.8708 21.0818 89.9682 21.1711 89.894 21.4335C89.2724 21.7072 88.9568 22.2895 88.6411 22.8719C88.4341 23.2538 88.227 23.6358 87.9335 23.9309C88.3005 23.9562 88.4896 24.1602 88.4564 24.5887C88.0565 25.0736 87.9008 25.6487 87.7481 26.2125C87.5485 26.9493 87.3541 27.6671 86.6268 28.1395C86.8056 28.1257 86.7822 28.3141 86.7586 28.5033C86.7448 28.6145 86.7309 28.726 86.7582 28.7968C86.4605 28.9389 86.183 29.0952 85.9731 29.324C86.1241 29.4776 86.1208 29.7876 86.104 30.1118C85.6592 30.1698 85.5537 30.5685 85.4481 30.967C85.343 31.3644 85.2378 31.7617 84.7966 31.8214C84.7492 32.0224 84.8057 32.1193 84.8622 32.2163C84.9187 32.3133 84.9752 32.4103 84.9275 32.6114C84.3016 32.5955 84.1931 33.0992 84.2732 33.7948C83.615 34.0098 83.286 34.5574 82.9568 35.1052C82.6786 35.5683 82.4003 36.0315 81.923 36.2939V37.0822C81.3024 37.1985 81.0428 37.6784 80.7832 38.1584C80.5513 38.587 80.3195 39.0156 79.8306 39.1852C79.6832 39.4251 79.6228 39.7515 79.5624 40.078C79.5273 40.2682 79.4921 40.4583 79.4397 40.6314C79.3323 40.6866 79.2123 40.7288 79.0925 40.7709C78.792 40.8766 78.4925 40.9819 78.3946 41.2914C79.1326 42.8486 80.8593 42.5004 82.6772 42.1338C83.3425 41.9996 84.02 41.863 84.6658 41.8164C86.2664 41.7006 86.4657 42.5938 86.6647 43.4863C86.7655 43.938 86.8662 44.3895 87.1485 44.7099C87.2038 44.9439 87.1493 45.0677 87.0948 45.1913C87.0558 45.2798 87.0168 45.3683 87.0182 45.4972C87.2179 45.4437 87.2762 45.5325 87.3346 45.6214C87.3804 45.691 87.4262 45.7607 87.5399 45.7622C87.5123 46.2839 87.6593 46.7179 87.8047 47.147C87.9261 47.5054 88.0464 47.8604 88.0628 48.2601C88.1434 50.2166 87.4734 51.428 85.7109 52.3359C85.3755 52.3284 85.2164 52.4714 85.0233 52.6449C84.8956 52.7596 84.7531 52.8877 84.5349 52.9943C82.0822 53.0913 79.6746 51.9301 77.5234 50.8926C77.2423 50.757 76.9656 50.6236 76.6937 50.4953C76.4672 50.102 76.3221 49.6811 76.1835 49.2794C75.9424 48.5803 75.7213 47.9392 75.1268 47.6023C74.5073 47.2517 73.6284 47.0987 72.7883 46.9525C72.3192 46.8708 71.8623 46.7913 71.4693 46.6806C67.5822 45.596 65.2123 43.8222 62.7143 41.5536C61.6916 40.6252 60.7424 39.5421 59.7827 38.4468C57.7898 36.1727 55.751 33.8462 52.9126 32.7431C52.5763 32.6122 52.1705 32.4677 51.7732 32.3261C51.2527 32.1406 50.7465 31.9603 50.4293 31.8225C48.6624 31.0549 44.1582 30.6396 44.1582 30.6396C44.1582 30.6396 42.7271 31.0023 42.46 29.9813C43.1706 29.8302 43.8586 29.4515 44.5414 29.0756C45.3264 28.6435 46.1046 28.2151 46.9026 28.1406C47.8386 28.0529 48.4749 28.4866 49.1924 28.9756C49.4943 29.1813 49.8104 29.3968 50.1693 29.5873C51.0808 30.0729 52.0736 30.4388 53.0445 30.7696C54.4469 31.2513 55.7062 31.9131 56.7988 32.4873C57.4885 32.8498 58.1117 33.1773 58.6626 33.4025C59.6024 33.7844 61.1971 34.2304 61.9282 34.0587C63.0658 33.7914 64.2259 31.35 64.8803 29.9727C64.9472 29.832 65.0088 29.7024 65.0646 29.5873C65.5979 28.4875 66.1508 26.6245 66.5784 25.1836C66.9165 24.044 67.1764 23.1686 67.2861 23.1436C68.1154 23.4029 67.9739 24.5346 67.8497 25.5279C67.7849 26.0458 67.7249 26.526 67.8095 26.8255C68.0582 26.537 68.2313 26.1723 68.4045 25.8075C68.6537 25.2828 68.9029 24.7579 69.3769 24.4592C70.4235 24.7018 70.011 25.7304 69.6636 26.5969C69.5276 26.936 69.4016 27.2502 69.3769 27.4828C69.8509 27.1802 70.1603 26.7125 70.4696 26.245C70.7867 25.7657 71.1036 25.2865 71.5979 24.9854C72.1488 25.942 71.5812 26.7226 71.0598 27.4397C70.7185 27.9092 70.397 28.3514 70.422 28.7979C71.9579 26.8578 73.2248 24.7202 74.475 22.611C75.5253 20.8389 76.5638 19.0869 77.7399 17.4888C78.2201 16.836 78.7664 16.2864 79.3329 15.7166C79.7984 15.2483 80.2776 14.7663 80.7449 14.202C81.4604 13.3378 82.0303 12.3557 82.5999 11.3742C83.0848 10.5385 83.5694 9.70331 84.1435 8.94165C84.6498 8.26866 85.2411 7.67695 85.8258 7.09181C86.4947 6.42239 87.1551 5.76158 87.6697 4.99752C88.1348 4.30657 88.488 3.54036 88.8421 2.77206Z" fill="#192B3F"/>
<path d="M7.588 19H4.62C3.14533 19 2.00667 18.608 1.204 17.824C0.401333 17.04 0 15.9106 0 14.436V5.55997C0 4.0853 0.401333 2.95597 1.204 2.17197C2.00667 1.38797 3.14533 0.995972 4.62 0.995972H7.588C9.044 0.995972 10.1733 1.3973 10.976 2.19997C11.7787 2.98397 12.18 4.10397 12.18 5.55997V6.39997C12.18 6.81064 11.984 7.01597 11.592 7.01597H9.212C8.82 7.01597 8.624 6.81064 8.624 6.39997V5.72797C8.624 5.13064 8.50267 4.71064 8.26 4.46797C8.01733 4.20664 7.59733 4.07597 7 4.07597H5.18C4.60133 4.07597 4.18133 4.20664 3.92 4.46797C3.67733 4.71064 3.556 5.13064 3.556 5.72797V14.268C3.556 14.8653 3.67733 15.2946 3.92 15.556C4.18133 15.7986 4.60133 15.92 5.18 15.92H7C7.59733 15.92 8.01733 15.7986 8.26 15.556C8.50267 15.2946 8.624 14.8653 8.624 14.268V12.504C8.624 12.2986 8.52133 12.196 8.316 12.196H6.636C6.244 12.196 6.048 12 6.048 11.608V9.70397C6.048 9.31197 6.244 9.11597 6.636 9.11597H11.536C11.9653 9.11597 12.18 9.33064 12.18 9.75997V14.436C12.18 15.892 11.7787 17.0213 10.976 17.824C10.1733 18.608 9.044 19 7.588 19Z" fill="#192B3F"/>
<path d="M24.7498 0.995972H27.1018C27.5125 0.995972 27.7178 1.18264 27.7178 1.55597V14.436C27.7178 15.892 27.3071 17.0213 26.4858 17.824C25.6831 18.608 24.5538 19 23.0978 19H20.0178C18.5431 19 17.4045 18.608 16.6018 17.824C15.7991 17.04 15.3978 15.9106 15.3978 14.436V1.58397C15.3978 1.19197 15.5938 0.995972 15.9858 0.995972H18.3658C18.7578 0.995972 18.9538 1.19197 18.9538 1.58397V14.268C18.9538 14.8653 19.0751 15.2946 19.3178 15.556C19.5791 15.7986 19.9991 15.92 20.5778 15.92H22.5098C23.1071 15.92 23.5271 15.7986 23.7698 15.556C24.0311 15.2946 24.1618 14.8653 24.1618 14.268V1.58397C24.1618 1.19197 24.3578 0.995972 24.7498 0.995972Z" fill="#192B3F"/>
<path d="M30.7578 13.848V14.408C30.7578 15.864 31.1684 16.9933 31.9898 17.796C32.8111 18.5986 33.9498 19 35.4058 19H38.4578C39.9138 19 41.0524 18.5986 41.8738 17.796C42.6951 16.9933 43.1058 15.864 43.1058 14.408V13.456C43.1058 12.336 42.8818 11.4213 42.4338 10.712C42.0044 9.98397 41.4631 9.47997 40.8098 9.19997C39.5778 8.69597 38.1684 8.37864 36.5818 8.24797C35.0511 8.1173 34.2858 7.6133 34.2858 6.73597V6.20397C34.2858 5.36397 34.4164 4.80397 34.6778 4.52397C34.9578 4.2253 35.4804 4.07597 36.2458 4.07597H37.3378C38.0844 4.07597 38.5978 4.20664 38.8778 4.46797C39.1578 4.7293 39.2978 5.22397 39.2978 5.95197V6.11997C39.2978 6.51197 39.4938 6.70797 39.8858 6.70797H42.2658C42.6578 6.70797 42.8538 6.51197 42.8538 6.11997V5.58797C42.8538 4.13197 42.4431 3.00264 41.6218 2.19997C40.8004 1.3973 39.6524 0.995972 38.1778 0.995972H35.3778C33.9218 0.995972 32.7831 1.3973 31.9618 2.19997C31.1404 3.00264 30.7298 4.13197 30.7298 5.58797V6.56797C30.7298 7.7253 30.9444 8.6773 31.3738 9.42397C31.8218 10.152 32.3724 10.6466 33.0258 10.908C33.6791 11.1506 34.3791 11.356 35.1258 11.524C35.8911 11.6733 36.6004 11.776 37.2538 11.832C37.9071 11.888 38.4484 12.0653 38.8778 12.364C39.3258 12.644 39.5498 13.0546 39.5498 13.596V13.932C39.5498 14.6973 39.4004 15.22 39.1018 15.5C38.8218 15.78 38.3178 15.92 37.5898 15.92H36.2738C35.5271 15.92 35.0138 15.7893 34.7338 15.528C34.4538 15.2666 34.3138 14.7813 34.3138 14.072V13.848C34.3138 13.456 34.1178 13.26 33.7258 13.26H31.3458C30.9538 13.26 30.7578 13.456 30.7578 13.848Z" fill="#192B3F"/>
<path d="M45.8515 14.408V13.848C45.8515 13.456 46.0475 13.26 46.4395 13.26H48.8195C49.2115 13.26 49.4075 13.456 49.4075 13.848V14.072C49.4075 14.7813 49.5475 15.2666 49.8275 15.528C50.1075 15.7893 50.6209 15.92 51.3675 15.92H52.6835C53.4115 15.92 53.9155 15.78 54.1955 15.5C54.4942 15.22 54.6435 14.6973 54.6435 13.932V13.596C54.6435 13.0546 54.4195 12.644 53.9715 12.364C53.5422 12.0653 53.0009 11.888 52.3475 11.832C51.6942 11.776 50.9849 11.6733 50.2195 11.524C49.4729 11.356 48.7729 11.1506 48.1195 10.908C47.4662 10.6466 46.9155 10.152 46.4675 9.42397C46.0382 8.6773 45.8235 7.7253 45.8235 6.56797V5.58797C45.8235 4.13197 46.2342 3.00264 47.0555 2.19997C47.8769 1.3973 49.0155 0.995972 50.4715 0.995972H53.2715C54.7462 0.995972 55.8942 1.3973 56.7155 2.19997C57.5369 3.00264 57.9475 4.13197 57.9475 5.58797V6.11997C57.9475 6.51197 57.7515 6.70797 57.3595 6.70797H54.9795C54.5875 6.70797 54.3915 6.51197 54.3915 6.11997V5.95197C54.3915 5.22397 54.2515 4.7293 53.9715 4.46797C53.6915 4.20664 53.1782 4.07597 52.4315 4.07597H51.3395C50.5742 4.07597 50.0515 4.2253 49.7715 4.52397C49.5102 4.80397 49.3795 5.36397 49.3795 6.20397V6.73597C49.3795 7.6133 50.1449 8.1173 51.6755 8.24797C53.2622 8.37864 54.6715 8.69597 55.9035 9.19997C56.5569 9.47997 57.0982 9.98397 57.5275 10.712C57.9755 11.4213 58.1995 12.336 58.1995 13.456V14.408C58.1995 15.864 57.7889 16.9933 56.9675 17.796C56.1462 18.5986 55.0075 19 53.5515 19H50.4995C49.0435 19 47.9049 18.5986 47.0835 17.796C46.2622 16.9933 45.8515 15.864 45.8515 14.408Z" fill="#192B3F"/>
<path d="M65.0893 18.412V1.58397C65.0893 1.19197 64.8933 0.995972 64.5013 0.995972H62.1213C61.7293 0.995972 61.5333 1.19197 61.5333 1.58397V18.412C61.5333 18.804 61.7293 19 62.1213 19H64.5013C64.8933 19 65.0893 18.804 65.0893 18.412Z" fill="#192B3F"/>
</svg>
