<svg width="10" height="10" viewBox="0 0 10 10" fill="none" xmlns="http://www.w3.org/2000/svg">
<path d="M5.82278 4.21717H9.62025C9.87342 4.21717 10 4.34343 10 4.59596V5.40404C10 5.63973 9.87342 5.75758 9.62025 5.75758H5.82278V9.59596C5.82278 9.86532 5.6962 10 5.44304 10H4.58228C4.32911 10 4.20253 9.86532 4.20253 9.59596V5.75758H0.379747C0.126582 5.75758 0 5.63973 0 5.40404V4.59596C0 4.34343 0.126582 4.21717 0.379747 4.21717H4.20253V0.404041C4.20253 0.13468 4.32911 0 4.58228 0H5.44304C5.6962 0 5.82278 0.13468 5.82278 0.404041V4.21717Z" fill="#192b3f"/>
</svg>
